<svg width="240" height="240" xmlns="http://www.w3.org/2000/svg" class="lucide lucide-wrench-icon lucide-wrench" fill="currentColor">

 <g>
  <title>Favicon</title>
  <rect fill="#000000" rx="90" id="svg_2" height="240" width="240" y="0" x="0.66667"/>
  <path fill="#ffffff" id="svg_1" d="m141.67198,74.23063a8.03179,8.03179 0 0 0 0,11.24451l12.85087,12.85087a8.03179,8.03179 0 0 0 11.24451,0l24.94675,-24.93871c2.57017,-2.58624 6.93144,-1.76699 7.89525,1.75093a48.19075,48.19075 0 0 1 -66.33457,56.68036l-63.53147,63.53147a8.03179,8.03179 0 0 1 -24.08734,-24.09538l63.53147,-63.53147a48.19075,48.19075 0 0 1 56.68036,-66.33457c3.51792,0.96382 4.33717,5.31705 1.75896,7.90328l-24.95478,24.93871z"/>
 </g>
</svg>
